G75*
%MOIN*%
%OFA0B0*%
%FSLAX25Y25*%
%IPPOS*%
%LPD*%
%AMOC8*
5,1,8,0,0,1.08239X$1,22.5*
%
%ADD10C,0.01600*%
%ADD11R,0.04724X0.03150*%
%ADD12R,0.03150X0.04724*%
%ADD13R,0.03150X0.03543*%
%ADD14R,0.08700X0.02400*%
%ADD15C,0.07400*%
%ADD16R,0.05906X0.07874*%
%ADD17C,0.03169*%
%ADD18C,0.00600*%
D10*
X0002000Y0001800D02*
X0072000Y0001800D01*
X0072000Y0071800D01*
X0002000Y0071800D01*
X0002000Y0001800D01*
D11*
X0027000Y0033257D03*
X0027000Y0040343D03*
X0042000Y0020343D03*
X0042000Y0013257D03*
X0052000Y0013257D03*
X0052000Y0020343D03*
D12*
X0045543Y0051800D03*
X0038457Y0051800D03*
X0038457Y0061800D03*
X0045543Y0061800D03*
X0058457Y0051800D03*
X0065543Y0051800D03*
D13*
X0025740Y0047863D03*
X0018260Y0047863D03*
X0022000Y0056131D03*
D14*
X0036700Y0044300D03*
X0036700Y0039300D03*
X0036700Y0034300D03*
X0036700Y0029300D03*
X0057300Y0029300D03*
X0057300Y0034300D03*
X0057300Y0039300D03*
X0057300Y0044300D03*
D15*
X0063000Y0020800D03*
X0014000Y0020800D03*
X0008000Y0044800D03*
X0014000Y0064800D03*
D16*
X0057000Y0065800D03*
D17*
X0054000Y0061800D03*
X0043000Y0044800D03*
X0018000Y0043800D03*
X0047000Y0013800D03*
D18*
X0051800Y0013800D01*
X0052000Y0013257D01*
X0051800Y0013200D01*
X0047000Y0013800D02*
X0042200Y0013800D01*
X0042000Y0013257D01*
X0042200Y0013200D01*
X0042000Y0013257D02*
X0041600Y0013200D01*
X0042000Y0020343D02*
X0044200Y0020400D01*
X0044200Y0034800D01*
X0057200Y0034800D01*
X0057300Y0034300D01*
X0057300Y0029300D02*
X0057200Y0028800D01*
X0052400Y0024000D01*
X0052400Y0020400D01*
X0052000Y0020343D01*
X0063000Y0020800D02*
X0064400Y0022200D01*
X0064400Y0022800D01*
X0064600Y0022800D01*
X0064600Y0039600D01*
X0057300Y0039300D01*
X0057800Y0039600D01*
X0064600Y0039600D01*
X0065000Y0045000D01*
X0065000Y0051600D01*
X0065543Y0051800D01*
X0058457Y0051800D02*
X0058400Y0052200D01*
X0045800Y0052200D01*
X0045543Y0051800D01*
X0045800Y0052200D02*
X0045800Y0056400D01*
X0022400Y0056400D01*
X0022000Y0056131D01*
X0022400Y0055800D01*
X0022400Y0030400D01*
X0023400Y0029400D01*
X0036200Y0029400D01*
X0036700Y0029300D01*
X0035600Y0033600D02*
X0036200Y0034200D01*
X0036700Y0034300D01*
X0035600Y0033600D02*
X0027200Y0033600D01*
X0027000Y0033257D01*
X0027200Y0040200D02*
X0027000Y0040343D01*
X0027200Y0040200D02*
X0035600Y0040200D01*
X0036200Y0039600D01*
X0036700Y0039300D01*
X0036800Y0039000D01*
X0044200Y0039000D01*
X0044200Y0034800D01*
X0043000Y0044800D02*
X0042200Y0045600D01*
X0038000Y0045600D01*
X0036700Y0044300D01*
X0038000Y0045600D02*
X0038000Y0051600D01*
X0038457Y0051800D01*
X0045800Y0056400D02*
X0045800Y0061800D01*
X0045543Y0061800D01*
X0038457Y0061800D02*
X0015200Y0061800D01*
X0015200Y0063600D01*
X0014000Y0064800D01*
X0018260Y0047863D02*
X0018200Y0047400D01*
X0018200Y0045000D01*
X0018000Y0043800D01*
X0008000Y0044800D02*
X0008000Y0025800D01*
X0014000Y0020800D01*
X0054000Y0061800D02*
X0054200Y0061800D01*
X0056600Y0064200D01*
X0056600Y0065400D01*
X0057000Y0065800D01*
X0058457Y0051800D02*
X0058400Y0051600D01*
X0058400Y0045000D01*
X0057800Y0044400D01*
X0057300Y0044300D01*
M02*
