G75*
%MOIN*%
%OFA0B0*%
%FSLAX25Y25*%
%IPPOS*%
%LPD*%
%AMOC8*
5,1,8,0,0,1.08239X$1,22.5*
%
%ADD10C,0.01600*%
%ADD11C,0.07400*%
%ADD12C,0.03169*%
D10*
X0002000Y0001800D02*
X0072000Y0001800D01*
X0072000Y0071800D01*
X0002000Y0071800D01*
X0002000Y0001800D01*
X0004600Y0004400D02*
X0004600Y0040988D01*
X0005111Y0040476D01*
X0006986Y0039700D01*
X0009014Y0039700D01*
X0010889Y0040476D01*
X0012324Y0041911D01*
X0013100Y0043786D01*
X0013100Y0045814D01*
X0012324Y0047689D01*
X0010889Y0049124D01*
X0009014Y0049900D01*
X0006986Y0049900D01*
X0005111Y0049124D01*
X0004600Y0048612D01*
X0004600Y0069200D01*
X0011296Y0069200D01*
X0011111Y0069124D01*
X0009676Y0067689D01*
X0008900Y0065814D01*
X0008900Y0063786D01*
X0009676Y0061911D01*
X0011111Y0060476D01*
X0012986Y0059700D01*
X0015014Y0059700D01*
X0016889Y0060476D01*
X0018324Y0061911D01*
X0019100Y0063786D01*
X0019100Y0065814D01*
X0018324Y0067689D01*
X0016889Y0069124D01*
X0016704Y0069200D01*
X0069400Y0069200D01*
X0069400Y0004400D01*
X0004600Y0004400D01*
X0004600Y0004997D02*
X0069400Y0004997D01*
X0069400Y0006596D02*
X0004600Y0006596D01*
X0004600Y0008194D02*
X0069400Y0008194D01*
X0069400Y0009793D02*
X0004600Y0009793D01*
X0004600Y0011391D02*
X0069400Y0011391D01*
X0069400Y0012990D02*
X0004600Y0012990D01*
X0004600Y0014588D02*
X0069400Y0014588D01*
X0069400Y0016187D02*
X0065189Y0016187D01*
X0065889Y0016476D02*
X0067324Y0017911D01*
X0068100Y0019786D01*
X0068100Y0021814D01*
X0067324Y0023689D01*
X0065889Y0025124D01*
X0064014Y0025900D01*
X0061986Y0025900D01*
X0060111Y0025124D01*
X0058676Y0023689D01*
X0057900Y0021814D01*
X0057900Y0019786D01*
X0058676Y0017911D01*
X0060111Y0016476D01*
X0061986Y0015700D01*
X0064014Y0015700D01*
X0065889Y0016476D01*
X0067198Y0017785D02*
X0069400Y0017785D01*
X0069400Y0019384D02*
X0067934Y0019384D01*
X0068100Y0020982D02*
X0069400Y0020982D01*
X0069400Y0022581D02*
X0067783Y0022581D01*
X0066833Y0024179D02*
X0069400Y0024179D01*
X0069400Y0025778D02*
X0064310Y0025778D01*
X0061690Y0025778D02*
X0015310Y0025778D01*
X0015014Y0025900D02*
X0012986Y0025900D01*
X0011111Y0025124D01*
X0009676Y0023689D01*
X0008900Y0021814D01*
X0008900Y0019786D01*
X0009676Y0017911D01*
X0011111Y0016476D01*
X0012986Y0015700D01*
X0015014Y0015700D01*
X0016889Y0016476D01*
X0018324Y0017911D01*
X0019100Y0019786D01*
X0019100Y0021814D01*
X0018324Y0023689D01*
X0016889Y0025124D01*
X0015014Y0025900D01*
X0012690Y0025778D02*
X0004600Y0025778D01*
X0004600Y0027376D02*
X0069400Y0027376D01*
X0069400Y0028975D02*
X0004600Y0028975D01*
X0004600Y0030573D02*
X0069400Y0030573D01*
X0069400Y0032172D02*
X0004600Y0032172D01*
X0004600Y0033770D02*
X0069400Y0033770D01*
X0069400Y0035369D02*
X0004600Y0035369D01*
X0004600Y0036967D02*
X0069400Y0036967D01*
X0069400Y0038566D02*
X0004600Y0038566D01*
X0004600Y0040164D02*
X0005865Y0040164D01*
X0010135Y0040164D02*
X0069400Y0040164D01*
X0069400Y0041763D02*
X0012175Y0041763D01*
X0012924Y0043361D02*
X0069400Y0043361D01*
X0069400Y0044960D02*
X0013100Y0044960D01*
X0012792Y0046558D02*
X0069400Y0046558D01*
X0069400Y0048157D02*
X0011856Y0048157D01*
X0009364Y0049755D02*
X0069400Y0049755D01*
X0069400Y0051354D02*
X0004600Y0051354D01*
X0004600Y0052952D02*
X0069400Y0052952D01*
X0069400Y0054551D02*
X0004600Y0054551D01*
X0004600Y0056149D02*
X0069400Y0056149D01*
X0069400Y0057748D02*
X0004600Y0057748D01*
X0004600Y0059346D02*
X0069400Y0059346D01*
X0069400Y0060945D02*
X0017357Y0060945D01*
X0018585Y0062543D02*
X0069400Y0062543D01*
X0069400Y0064142D02*
X0019100Y0064142D01*
X0019100Y0065740D02*
X0069400Y0065740D01*
X0069400Y0067339D02*
X0018469Y0067339D01*
X0017075Y0068937D02*
X0069400Y0068937D01*
X0059167Y0024179D02*
X0017833Y0024179D01*
X0018783Y0022581D02*
X0058217Y0022581D01*
X0057900Y0020982D02*
X0019100Y0020982D01*
X0018934Y0019384D02*
X0058066Y0019384D01*
X0058802Y0017785D02*
X0018198Y0017785D01*
X0016189Y0016187D02*
X0060811Y0016187D01*
X0011811Y0016187D02*
X0004600Y0016187D01*
X0004600Y0017785D02*
X0009802Y0017785D01*
X0009066Y0019384D02*
X0004600Y0019384D01*
X0004600Y0020982D02*
X0008900Y0020982D01*
X0009217Y0022581D02*
X0004600Y0022581D01*
X0004600Y0024179D02*
X0010167Y0024179D01*
X0006636Y0049755D02*
X0004600Y0049755D01*
X0004600Y0060945D02*
X0010643Y0060945D01*
X0009414Y0062543D02*
X0004600Y0062543D01*
X0004600Y0064142D02*
X0008900Y0064142D01*
X0008900Y0065740D02*
X0004600Y0065740D01*
X0004600Y0067339D02*
X0009531Y0067339D01*
X0010925Y0068937D02*
X0004600Y0068937D01*
D11*
X0014000Y0064800D03*
X0008000Y0044800D03*
X0014000Y0020800D03*
X0063000Y0020800D03*
D12*
X0047000Y0013800D03*
X0018000Y0043800D03*
X0043000Y0044800D03*
X0054000Y0061800D03*
M02*
